<svg xmlns="http://www.w3.org/2000/svg" width="51" height="51" viewBox="0 0 51 51">
  <g fill="none" fill-rule="evenodd">
    <path fill="#FFF" stroke="#1F191A" d="M50.5,25.5 C50.5,39.3074468 39.3074468,50.5 25.5,50.5 C11.6925532,50.5 0.5,39.3074468 0.5,25.5 C0.5,11.6925532 11.6925532,0.5 25.5,0.5 C39.3074468,0.5 50.5,11.6925532 50.5,25.5 Z"/>
    <polygon fill="#1F191A" points="10.221 30.077 6.654 25.75 10.221 21.447 10.926 22.274 8.669 25.02 20.96 25.02 20.96 26.212 8.448 26.212 10.946 29.202"/>
    <polygon fill="#1F191A" points="30.039 25.021 42.329 25.021 40.072 22.298 40.778 21.447 44.344 25.75 40.778 30.053 40.072 29.227 42.551 26.212 30.039 26.212"/>
  </g>
</svg>
