<svg version="1.1" id="logo" xmlns="http://www.w3.org/2000/svg" xmlns:xlink="http://www.w3.org/1999/xlink" x="0px" y="0px"
	 viewBox="0 0 48.9 176.2" style="enable-background:new 0 0 48.9 176.2;" xml:space="preserve">
<path id="wordmark" d="M17.1,101.3l-1.6,2.1v-7.5l1.6,1.6h11.2l1.6-1.6v11.2h-4.5l0,0v4.6h-8.6l-1.4,1.3v-6l1.4,1.4h7
	l1.4-1.2h0l0.2-0.2l0,0v0l3.3-2.9l0-2.8h-5.6l3.3,3.2h-7.3l3.3-3.2H17.1z M28.3,108.2c-1,0-1.8,0.8-1.8,1.8s0.8,1.8,1.8,1.8
	c1,0,1.8-0.8,1.8-1.8C30.2,109,29.4,108.2,28.3,108.2z M25.5,121.2c0.2-0.1,0.3-0.7,0.3-0.9c0-1.4-1.3-2.4-2.7-3.1v-0.1l2.5,0.2
	v-3.6l-1.4,1h-7.1l-1.4-1v5.9l1.4-1.6v0h5.3v3.2H25.5z M15.2,126.6c0-3,2.4-4.5,5.1-4.5c2.9,0,5.5,1.9,5.5,4.6c0,2.5-1.7,4-3.5,4h-1
	v-5.7c-2.2,0.1-3.3,1.4-3.3,2.8c0,1.2,0.5,1.8,1.2,2.6l-0.2,0.5C16.6,130.1,15.2,128.7,15.2,126.6z M22.4,127.6h0.3
	c1,0,1.6-0.4,1.6-1.1c0-0.6-0.7-1.3-1.8-1.5L22.4,127.6z M15.2,137.2c0-2.4,0.7-3.8,1.4-4.9h12.1l1.2-1.4v4.7h-5v0h0
	c0.3,0.6,0.8,1.3,0.8,2.4c0,2.6-2.2,4.1-4.9,4.1C17.7,142.2,15.2,140.4,15.2,137.2z M16.9,136.5c0,1,0.5,2.3,3,2.3
	c2.5,0,3.4-0.7,3.4-2.4v-0.7h-6.5V136.5z M21.2,151.8v-5.7c-2.2,0.1-3.3,1.4-3.3,2.8c0,1.2,0.5,1.8,1.2,2.6l-0.2,0.5
	c-2.3-0.7-3.7-2.1-3.7-4.2c0-3,2.4-4.5,5.1-4.5c2.9,0,5.5,1.9,5.5,4.6c0,2.5-1.7,4-3.5,4H21.2z M22.4,148.9h0.3c1,0,1.6-0.4,1.6-1.1
	c0-0.6-0.7-1.3-1.8-1.5L22.4,148.9z M16.9,154l-1.4-1.4v6l1.4-1.3H30v-4.7l-1.4,1.4H16.9z M16.9,160.3l-1.4-1.4v6l1.4-1.3l13.1,0
	v-4.7l-1.4,1.4H16.9z M14,165.9c-2,0-2.8,1.4-2.8,2.7c0,1.3,1.1,2.5,2.5,3l11.7,4.6V172l-3.3,1.5l-3.9-1.5v0l5.8-2.4l1.4,1.3v-5.7
	L14,170.1V165.9z"/>
<path id="f" d="M24.5,48.9C11,48.9,0,37.9,0,24.5C0,11,11,0,24.5,0s24.5,11,24.5,24.5S37.9,48.9,24.5,48.9z M24.5,1.5
	c-12.7,0-23,10.3-23,23s10.3,23,23,23s23-10.3,23-23S37.1,1.5,24.5,1.5z M16,12.3l2.7,2.7v18.8L16,36.6h12.6L25,33.9v-8.8l4.7,4.8
	V18.9L25,23.7v-9.3h3.6l5.1,5.8v-7.9H16z"/>
</svg>
